# Blender v2.78 (sub 0) OBJ File: 'GH_Note_Open_1.blend'
# www.blender.org
mtllib GH_Note_Open.mtl
o Cylinder_Cylinder.001
v -2.672884 0.003370 -0.232089
v -2.669626 0.098154 -0.173115
v 2.672769 0.003370 -0.231995
v 2.669525 0.098154 -0.173021
v 2.992057 0.003370 -0.196663
v 2.981156 0.098154 -0.138537
v 3.236439 0.003370 -0.131384
v 3.212287 0.098154 -0.076798
v 3.368710 0.003370 -0.046097
v 3.309763 0.098154 -0.013946
v 3.368732 0.003370 0.046215
v 3.309770 0.098154 0.014071
v 3.236504 0.003370 0.131498
v 3.212337 0.098154 0.076911
v 2.992154 0.003370 0.196768
v 2.981239 0.098154 0.138641
v 2.672884 0.003370 0.232088
v 2.669626 0.098154 0.173115
v -2.672769 0.003370 0.231995
v -2.669525 0.098154 0.173021
v -2.992056 0.003370 0.196663
v -2.981156 0.098154 0.138537
v -3.236439 0.003370 0.131384
v -3.212287 0.098154 0.076798
v -3.368710 0.003370 0.046097
v -3.309762 0.098154 0.013946
v -3.368732 0.003370 -0.046215
v -3.309769 0.098154 -0.014071
v -3.236503 0.003370 -0.131498
v -3.212337 0.098154 -0.076911
v -2.992153 0.003370 -0.196768
v -2.981239 0.098154 -0.138641
v 2.672769 0.122166 -0.231995
v -2.672884 0.122166 -0.232089
v 2.992057 0.122166 -0.196663
v 3.236439 0.122166 -0.131384
v 3.368710 0.122166 -0.046097
v 3.368732 0.122166 0.046215
v 3.236504 0.122166 0.131498
v 2.992154 0.122166 0.196768
v 2.672884 0.122166 0.232088
v -2.672769 0.122166 0.231995
v -2.992056 0.122166 0.196663
v -3.236439 0.122166 0.131384
v -3.368710 0.122166 0.046097
v -3.368732 0.122166 -0.046215
v -3.236503 0.122166 -0.131498
v -2.992153 0.122166 -0.196768
v -2.672884 0.074866 -0.232089
v 2.672769 0.074866 -0.231995
v 2.992057 0.074866 -0.196663
v 3.236439 0.074866 -0.131384
v 3.368710 0.074866 -0.046097
v 3.368732 0.074866 0.046215
v 3.236504 0.074866 0.131498
v 2.992154 0.074866 0.196768
v 2.672884 0.074866 0.232088
v -2.672769 0.074866 0.231995
v -2.992056 0.074866 0.196663
v -3.236439 0.074866 0.131384
v -3.368710 0.074866 0.046097
v -3.368732 0.074866 -0.046215
v -3.236503 0.074866 -0.131498
v -2.992153 0.074866 -0.196768
vn -0.1335 -0.6905 0.7109
vn -0.2992 -0.6738 0.6756
vn -0.1335 -0.6905 -0.7109
vn -0.0396 -0.6949 -0.7180
vn 0.0396 -0.6949 -0.7180
vn 0.1335 -0.6905 -0.7109
vn 0.0396 -0.6949 0.7180
vn 0.2992 -0.6738 -0.6756
vn 0.6933 -0.6136 -0.3780
vn 0.2992 -0.6738 0.6756
vn 0.6934 -0.6136 0.3778
vn 0.1335 -0.6905 0.7109
vn -0.0396 -0.6949 0.7180
vn -0.6933 -0.6136 0.3780
vn -0.2992 -0.6738 -0.6756
vn -0.6934 -0.6136 -0.3778
vn -0.0318 0.8162 -0.5768
vn 0.0551 0.0000 -0.9985
vn -0.0550 0.0000 -0.9985
vn 0.0318 0.8162 -0.5768
vn 0.1845 0.0000 -0.9828
vn 0.1079 0.8112 -0.5746
vn 0.4049 0.0000 -0.9143
vn 0.2475 0.7914 -0.5589
vn 0.8780 0.0000 -0.4787
vn 0.6183 0.7099 -0.3371
vn 0.8781 0.0000 0.4784
vn 0.6185 0.7098 0.3370
vn 0.4050 0.0000 0.9143
vn 0.2475 0.7913 0.5589
vn 0.1845 0.0000 0.9828
vn 0.1079 0.8112 0.5747
vn 0.0550 0.0000 0.9985
vn 0.0318 0.8162 0.5768
vn -0.0551 0.0000 0.9985
vn -0.0318 0.8162 0.5768
vn -0.1845 0.0000 0.9828
vn -0.1079 0.8112 0.5746
vn -0.4049 0.0000 0.9143
vn -0.2475 0.7914 0.5589
vn -0.8780 0.0000 0.4787
vn -0.6183 0.7099 0.3371
vn -0.8781 0.0000 -0.4784
vn -0.6185 0.7098 -0.3370
vn -0.4050 0.0000 -0.9143
vn -0.2475 0.7913 -0.5589
vn -0.1845 0.0000 -0.9828
vn -0.1079 0.8112 -0.5747
vn 0.0109 0.9801 0.1980
vn -0.0370 0.9797 0.1970
vn -0.0109 0.9801 0.1980
vn -0.0843 0.9781 0.1903
vn -0.1952 0.9749 0.1064
vn -0.1953 0.9749 -0.1064
vn -0.0843 0.9781 -0.1903
vn -0.0370 0.9797 -0.1970
vn -0.0109 0.9801 -0.1980
vn 0.0370 0.9797 -0.1970
vn 0.0109 0.9801 -0.1980
vn 0.0843 0.9781 -0.1903
vn 0.1952 0.9749 -0.1064
vn 0.1953 0.9749 0.1064
vn 0.0843 0.9781 0.1903
vn 0.0370 0.9797 0.1970
usemtl GH_Note:Material_003
s 1
f 21//1 23//2 31//3
f 31//3 1//4 21//1
f 3//5 5//6 17//7
f 7//8 9//9 13//10
f 11//11 13//10 9//9
f 15//12 17//7 5//6
f 19//13 21//1 1//4
f 23//2 25//14 29//15
f 27//16 29//15 25//14
f 1//4 3//5 19//13
f 7//8 13//10 15//12
f 17//7 19//13 3//5
f 23//2 29//15 31//3
f 5//6 7//8 15//12
usemtl GH_Note:Material_005
f 34//17 50//18 49//19
f 33//20 51//21 50//18
f 35//22 52//23 51//21
f 36//24 53//25 52//23
f 37//26 54//27 53//25
f 38//28 55//29 54//27
f 39//30 56//31 55//29
f 40//32 57//33 56//31
f 41//34 58//35 57//33
f 42//36 59//37 58//35
f 43//38 60//39 59//37
f 44//40 61//41 60//39
f 45//42 62//43 61//41
f 46//44 63//45 62//43
f 47//46 64//47 63//45
f 48//48 49//19 64//47
f 2//49 33//20 34//17
f 6//50 33//20 4//51
f 8//52 35//22 6//50
f 10//53 36//24 8//52
f 12//54 37//26 10//53
f 12//54 39//30 38//28
f 14//55 40//32 39//30
f 16//56 41//34 40//32
f 18//57 42//36 41//34
f 22//58 42//36 20//59
f 24//60 43//38 22//58
f 26//61 44//40 24//60
f 28//62 45//42 26//61
f 28//62 47//46 46//44
f 30//63 48//48 47//46
f 32//64 34//17 48//48
f 34//17 33//20 50//18
f 33//20 35//22 51//21
f 35//22 36//24 52//23
f 36//24 37//26 53//25
f 37//26 38//28 54//27
f 38//28 39//30 55//29
f 39//30 40//32 56//31
f 40//32 41//34 57//33
f 41//34 42//36 58//35
f 42//36 43//38 59//37
f 43//38 44//40 60//39
f 44//40 45//42 61//41
f 45//42 46//44 62//43
f 46//44 47//46 63//45
f 47//46 48//48 64//47
f 48//48 34//17 49//19
f 2//49 4//51 33//20
f 6//50 35//22 33//20
f 8//52 36//24 35//22
f 10//53 37//26 36//24
f 12//54 38//28 37//26
f 12//54 14//55 39//30
f 14//55 16//56 40//32
f 16//56 18//57 41//34
f 18//57 20//59 42//36
f 22//58 43//38 42//36
f 24//60 44//40 43//38
f 26//61 45//42 44//40
f 28//62 46//44 45//42
f 28//62 30//63 47//46
f 30//63 32//64 48//48
f 32//64 2//49 34//17
usemtl Material
f 16//56 8//52 6//50
f 6//50 4//51 18//57
f 2//49 32//64 22//58
f 30//63 28//62 26//61
f 26//61 24//60 30//63
f 22//58 20//59 2//49
f 18//57 16//56 6//50
f 14//55 12//54 10//53
f 10//53 8//52 14//55
f 4//51 20//59 18//57
f 30//63 24//60 32//64
f 20//59 4//51 2//49
f 14//55 8//52 16//56
f 32//64 24//60 22//58
usemtl Material.001
f 64//47 1//4 31//3
f 63//45 31//3 29//15
f 62//43 29//15 27//16
f 61//41 27//16 25//14
f 60//39 25//14 23//2
f 59//37 23//2 21//1
f 58//35 21//1 19//13
f 57//33 19//13 17//7
f 56//31 17//7 15//12
f 55//29 15//12 13//10
f 54//27 13//10 11//11
f 53//25 11//11 9//9
f 52//23 9//9 7//8
f 51//21 7//8 5//6
f 50//18 5//6 3//5
f 49//19 3//5 1//4
f 64//47 49//19 1//4
f 63//45 64//47 31//3
f 62//43 63//45 29//15
f 61//41 62//43 27//16
f 60//39 61//41 25//14
f 59//37 60//39 23//2
f 58//35 59//37 21//1
f 57//33 58//35 19//13
f 56//31 57//33 17//7
f 55//29 56//31 15//12
f 54//27 55//29 13//10
f 53//25 54//27 11//11
f 52//23 53//25 9//9
f 51//21 52//23 7//8
f 50//18 51//21 5//6
f 49//19 50//18 3//5
