# This file uses centimeters as units for non-parametric coordinates.

mtllib open_note_taller.mtl
g default
v -2.672884 0.014554 -0.232089
v -2.669626 0.149152 -0.173115
v 2.672769 0.014554 -0.231995
v 2.669526 0.149152 -0.173021
v 2.992057 0.014554 -0.196663
v 2.981156 0.149152 -0.138537
v 3.236439 0.014554 -0.131384
v 3.212287 0.149152 -0.076798
v 3.368710 0.014554 -0.046097
v 3.309763 0.149152 -0.013946
v 3.368732 0.014554 0.046215
v 3.309770 0.149152 0.014071
v 3.236504 0.014554 0.131498
v 3.212337 0.149152 0.076911
v 2.992154 0.014554 0.196768
v 2.981239 0.149152 0.138641
v 2.672884 0.014554 0.232088
v 2.669626 0.149152 0.173115
v -2.672769 0.014554 0.231995
v -2.669525 0.149152 0.173021
v -2.992056 0.014552 0.196663
v -2.981156 0.149152 0.138537
v -3.236439 0.014552 0.131384
v -3.212287 0.149152 0.076798
v -3.368710 0.014552 0.046097
v -3.309762 0.149152 0.013946
v -3.368732 0.014552 -0.046215
v -3.309769 0.091491 -0.014071
v -3.236503 0.014552 -0.131498
v -3.212337 0.149152 -0.076911
v -2.992153 0.014552 -0.196768
v -2.981239 0.149152 -0.138641
v 2.672769 0.110982 -0.231995
v -2.672884 0.110984 -0.232089
v 2.992057 0.110982 -0.196663
v 3.236439 0.110982 -0.131384
v 3.368710 0.110982 -0.046097
v 3.368732 0.110982 0.046215
v 3.236504 0.110982 0.131498
v 2.992154 0.110982 0.196768
v 2.672884 0.110982 0.232088
v -2.672769 0.110984 0.231995
v -2.992056 0.110984 0.196663
v -3.236439 0.110984 0.131384
v -3.368710 0.110984 0.046097
v -3.368732 0.110984 -0.046215
v -3.236503 0.110984 -0.131498
v -2.992153 0.110984 -0.196768
v -2.672884 0.072588 -0.232089
v 2.672769 0.072588 -0.231995
v 2.992057 0.072588 -0.196663
v 3.236439 0.072588 -0.131384
v 3.368710 0.072588 -0.046097
v 3.368732 0.072588 0.046215
v 3.236504 0.072588 0.131498
v 2.992154 0.072588 0.196768
v 2.672884 0.072588 0.232088
v -2.672769 0.072588 0.231995
v -2.992056 0.072588 0.196663
v -3.236439 0.072588 0.131384
v -3.368710 0.072588 0.046097
v -3.368732 0.072588 -0.046215
v -3.236503 0.072588 -0.131498
v -2.992153 0.072588 -0.196768
vn -0.133501 -0.690503 0.710903
vn -0.299206 -0.673813 0.675613
vn -0.133501 -0.690503 -0.710903
vn -0.133501 -0.690503 -0.710903
vn -0.039600 -0.694908 -0.718008
vn -0.133501 -0.690503 0.710903
vn 0.039600 -0.694908 -0.718008
vn 0.133501 -0.690503 -0.710903
vn 0.039600 -0.694908 0.718008
vn 0.299206 -0.673813 -0.675613
vn 0.693281 -0.613584 -0.377990
vn 0.299206 -0.673813 0.675613
vn 0.693386 -0.613587 0.377792
vn 0.299206 -0.673813 0.675613
vn 0.693281 -0.613584 -0.377990
vn 0.133501 -0.690503 0.710903
vn 0.039600 -0.694908 0.718008
vn 0.133501 -0.690503 -0.710903
vn -0.039600 -0.694908 0.718008
vn -0.133501 -0.690503 0.710903
vn -0.039600 -0.694908 -0.718008
vn -0.299206 -0.673813 0.675613
vn -0.693281 -0.613584 0.377990
vn -0.299206 -0.673813 -0.675613
vn -0.693386 -0.613587 -0.377792
vn -0.299206 -0.673813 -0.675613
vn -0.693281 -0.613584 0.377990
vn -0.039600 -0.694908 -0.718008
vn 0.039600 -0.694908 -0.718008
vn -0.039600 -0.694908 0.718008
vn 0.299206 -0.673813 -0.675613
vn 0.299206 -0.673813 0.675613
vn 0.133501 -0.690503 0.710903
vn 0.039600 -0.694908 0.718008
vn -0.039600 -0.694908 0.718008
vn 0.039600 -0.694908 -0.718008
vn -0.299206 -0.673813 0.675613
vn -0.299206 -0.673813 -0.675613
vn -0.133501 -0.690503 -0.710903
vn 0.133501 -0.690503 -0.710903
vn 0.299206 -0.673813 -0.675613
vn 0.133501 -0.690503 0.710903
vn -0.031802 0.816244 -0.576831
vn 0.055099 0.000000 -0.998481
vn -0.054999 0.000000 -0.998486
vn 0.031802 0.816244 -0.576831
vn 0.184506 0.000000 -0.982831
vn 0.055099 0.000000 -0.998481
vn 0.107908 0.811260 -0.574642
vn 0.404923 0.000000 -0.914351
vn 0.184506 0.000000 -0.982831
vn 0.247507 0.791424 -0.558917
vn 0.877984 0.000000 -0.478691
vn 0.404923 0.000000 -0.914351
vn 0.618334 0.709939 -0.337119
vn 0.878133 0.000000 0.478418
vn 0.877984 0.000000 -0.478691
vn 0.618523 0.709826 0.337012
vn 0.405006 0.000000 0.914314
vn 0.878133 0.000000 0.478418
vn 0.247527 0.791387 0.558961
vn 0.184506 0.000000 0.982831
vn 0.405006 0.000000 0.914314
vn 0.107902 0.811213 0.574709
vn 0.054999 0.000000 0.998486
vn 0.184506 0.000000 0.982831
vn 0.031802 0.816244 0.576831
vn -0.055099 0.000000 0.998481
vn 0.054999 0.000000 0.998486
vn -0.031802 0.816244 0.576831
vn -0.184506 0.000000 0.982831
vn -0.055099 0.000000 0.998481
vn -0.107908 0.811260 0.574642
vn -0.404923 0.000000 0.914351
vn -0.184506 0.000000 0.982831
vn -0.247507 0.791424 0.558917
vn -0.877984 0.000000 0.478691
vn -0.404923 0.000000 0.914351
vn -0.618334 0.709939 0.337119
vn -0.878133 0.000000 -0.478418
vn -0.877984 0.000000 0.478691
vn -0.618523 0.709826 -0.337012
vn -0.405006 0.000000 -0.914314
vn -0.878133 0.000000 -0.478418
vn -0.247527 0.791387 -0.558961
vn -0.184506 0.000000 -0.982831
vn -0.405006 0.000000 -0.914314
vn -0.107902 0.811213 -0.574709
vn -0.054999 0.000000 -0.998486
vn -0.184506 0.000000 -0.982831
vn 0.010900 0.980140 0.198008
vn 0.031802 0.816244 -0.576831
vn -0.031802 0.816244 -0.576831
vn -0.037000 0.979705 0.197001
vn 0.031802 0.816244 -0.576831
vn -0.010900 0.980140 0.198008
vn -0.084300 0.978100 0.190300
vn 0.107908 0.811260 -0.574642
vn -0.037000 0.979705 0.197001
vn -0.195214 0.974971 0.106408
vn 0.247507 0.791424 -0.558917
vn -0.084300 0.978100 0.190300
vn -0.195310 0.974952 -0.106406
vn 0.618334 0.709939 -0.337119
vn -0.195214 0.974971 0.106408
vn -0.195310 0.974952 -0.106406
vn 0.247527 0.791387 0.558961
vn 0.618523 0.709826 0.337012
vn -0.084300 0.978100 -0.190300
vn 0.107902 0.811213 0.574709
vn 0.247527 0.791387 0.558961
vn -0.037000 0.979705 -0.197001
vn 0.031802 0.816244 0.576831
vn 0.107902 0.811213 0.574709
vn -0.010900 0.980140 -0.198008
vn -0.031802 0.816244 0.576831
vn 0.031802 0.816244 0.576831
vn 0.037000 0.979705 -0.197001
vn -0.031802 0.816244 0.576831
vn 0.010900 0.980140 -0.198008
vn 0.084300 0.978100 -0.190300
vn -0.107908 0.811260 0.574642
vn 0.037000 0.979705 -0.197001
vn 0.195214 0.974971 -0.106408
vn -0.247507 0.791424 0.558917
vn 0.084300 0.978100 -0.190300
vn 0.195310 0.974952 0.106406
vn -0.618334 0.709939 0.337119
vn 0.195214 0.974971 -0.106408
vn 0.195310 0.974952 0.106406
vn -0.247527 0.791387 -0.558961
vn -0.618523 0.709826 -0.337012
vn 0.084300 0.978100 0.190300
vn -0.107902 0.811213 -0.574709
vn -0.247527 0.791387 -0.558961
vn 0.037000 0.979705 0.197001
vn -0.031802 0.816244 -0.576831
vn -0.107902 0.811213 -0.574709
vn -0.031802 0.816244 -0.576831
vn 0.031802 0.816244 -0.576831
vn 0.055099 0.000000 -0.998481
vn 0.031802 0.816244 -0.576831
vn 0.107908 0.811260 -0.574642
vn 0.184506 0.000000 -0.982831
vn 0.107908 0.811260 -0.574642
vn 0.247507 0.791424 -0.558917
vn 0.404923 0.000000 -0.914351
vn 0.247507 0.791424 -0.558917
vn 0.618334 0.709939 -0.337119
vn 0.877984 0.000000 -0.478691
vn 0.618334 0.709939 -0.337119
vn 0.618523 0.709826 0.337012
vn 0.878133 0.000000 0.478418
vn 0.618523 0.709826 0.337012
vn 0.247527 0.791387 0.558961
vn 0.405006 0.000000 0.914314
vn 0.247527 0.791387 0.558961
vn 0.107902 0.811213 0.574709
vn 0.184506 0.000000 0.982831
vn 0.107902 0.811213 0.574709
vn 0.031802 0.816244 0.576831
vn 0.054999 0.000000 0.998486
vn 0.031802 0.816244 0.576831
vn -0.031802 0.816244 0.576831
vn -0.055099 0.000000 0.998481
vn -0.031802 0.816244 0.576831
vn -0.107908 0.811260 0.574642
vn -0.184506 0.000000 0.982831
vn -0.107908 0.811260 0.574642
vn -0.247507 0.791424 0.558917
vn -0.404923 0.000000 0.914351
vn -0.247507 0.791424 0.558917
vn -0.618334 0.709939 0.337119
vn -0.877984 0.000000 0.478691
vn -0.618334 0.709939 0.337119
vn -0.618523 0.709826 -0.337012
vn -0.878133 0.000000 -0.478418
vn -0.618523 0.709826 -0.337012
vn -0.247527 0.791387 -0.558961
vn -0.405006 0.000000 -0.914314
vn -0.247527 0.791387 -0.558961
vn -0.107902 0.811213 -0.574709
vn -0.184506 0.000000 -0.982831
vn -0.107902 0.811213 -0.574709
vn -0.031802 0.816244 -0.576831
vn -0.054999 0.000000 -0.998486
vn 0.010900 0.980140 0.198008
vn -0.010900 0.980140 0.198008
vn 0.031802 0.816244 -0.576831
vn -0.037000 0.979705 0.197001
vn 0.107908 0.811260 -0.574642
vn 0.031802 0.816244 -0.576831
vn -0.084300 0.978100 0.190300
vn 0.247507 0.791424 -0.558917
vn 0.107908 0.811260 -0.574642
vn -0.195214 0.974971 0.106408
vn 0.618334 0.709939 -0.337119
vn 0.247507 0.791424 -0.558917
vn -0.195310 0.974952 -0.106406
vn 0.618523 0.709826 0.337012
vn 0.618334 0.709939 -0.337119
vn -0.195310 0.974952 -0.106406
vn -0.084300 0.978100 -0.190300
vn 0.247527 0.791387 0.558961
vn -0.084300 0.978100 -0.190300
vn -0.037000 0.979705 -0.197001
vn 0.107902 0.811213 0.574709
vn -0.037000 0.979705 -0.197001
vn -0.010900 0.980140 -0.198008
vn 0.031802 0.816244 0.576831
vn -0.010900 0.980140 -0.198008
vn 0.010900 0.980140 -0.198008
vn -0.031802 0.816244 0.576831
vn 0.037000 0.979705 -0.197001
vn -0.107908 0.811260 0.574642
vn -0.031802 0.816244 0.576831
vn 0.084300 0.978100 -0.190300
vn -0.247507 0.791424 0.558917
vn -0.107908 0.811260 0.574642
vn 0.195214 0.974971 -0.106408
vn -0.618334 0.709939 0.337119
vn -0.247507 0.791424 0.558917
vn 0.195310 0.974952 0.106406
vn -0.618523 0.709826 -0.337012
vn -0.618334 0.709939 0.337119
vn 0.195310 0.974952 0.106406
vn 0.084300 0.978100 0.190300
vn -0.247527 0.791387 -0.558961
vn 0.084300 0.978100 0.190300
vn 0.037000 0.979705 0.197001
vn -0.107902 0.811213 -0.574709
vn 0.037000 0.979705 0.197001
vn 0.010900 0.980140 0.198008
vn -0.031802 0.816244 -0.576831
vn -0.037000 0.979705 -0.197001
vn -0.084300 0.978100 0.190300
vn -0.037000 0.979705 0.197001
vn -0.037000 0.979705 0.197001
vn -0.010900 0.980140 0.198008
vn -0.010900 0.980140 -0.198008
vn 0.010900 0.980140 0.198008
vn 0.037000 0.979705 0.197001
vn 0.037000 0.979705 -0.197001
vn 0.084300 0.978100 0.190300
vn 0.195310 0.974952 0.106406
vn 0.195214 0.974971 -0.106408
vn 0.195214 0.974971 -0.106408
vn 0.084300 0.978100 -0.190300
vn 0.084300 0.978100 0.190300
vn 0.037000 0.979705 -0.197001
vn 0.010900 0.980140 -0.198008
vn 0.010900 0.980140 0.198008
vn -0.010900 0.980140 -0.198008
vn -0.037000 0.979705 -0.197001
vn -0.037000 0.979705 0.197001
vn -0.084300 0.978100 -0.190300
vn -0.195310 0.974952 -0.106406
vn -0.195214 0.974971 0.106408
vn -0.195214 0.974971 0.106408
vn -0.084300 0.978100 0.190300
vn -0.084300 0.978100 -0.190300
vn -0.010900 0.980140 0.198008
vn 0.010900 0.980140 -0.198008
vn -0.010900 0.980140 -0.198008
vn 0.084300 0.978100 0.190300
vn 0.084300 0.978100 -0.190300
vn 0.037000 0.979705 0.197001
vn 0.010900 0.980140 -0.198008
vn -0.010900 0.980140 0.198008
vn 0.010900 0.980140 0.198008
vn -0.084300 0.978100 -0.190300
vn -0.084300 0.978100 0.190300
vn -0.037000 0.979705 -0.197001
vn 0.037000 0.979705 0.197001
vn 0.084300 0.978100 -0.190300
vn 0.037000 0.979705 -0.197001
vn -0.184506 0.000000 -0.982831
vn -0.039600 -0.694908 -0.718008
vn -0.133501 -0.690503 -0.710903
vn -0.405006 0.000000 -0.914314
vn -0.133501 -0.690503 -0.710903
vn -0.299206 -0.673813 -0.675613
vn -0.878133 0.000000 -0.478418
vn -0.299206 -0.673813 -0.675613
vn -0.693386 -0.613587 -0.377792
vn -0.877984 0.000000 0.478691
vn -0.693386 -0.613587 -0.377792
vn -0.693281 -0.613584 0.377990
vn -0.404923 0.000000 0.914351
vn -0.693281 -0.613584 0.377990
vn -0.299206 -0.673813 0.675613
vn -0.184506 0.000000 0.982831
vn -0.299206 -0.673813 0.675613
vn -0.133501 -0.690503 0.710903
vn -0.055099 0.000000 0.998481
vn -0.133501 -0.690503 0.710903
vn -0.039600 -0.694908 0.718008
vn 0.054999 0.000000 0.998486
vn -0.039600 -0.694908 0.718008
vn 0.039600 -0.694908 0.718008
vn 0.184506 0.000000 0.982831
vn 0.039600 -0.694908 0.718008
vn 0.133501 -0.690503 0.710903
vn 0.405006 0.000000 0.914314
vn 0.133501 -0.690503 0.710903
vn 0.299206 -0.673813 0.675613
vn 0.878133 0.000000 0.478418
vn 0.299206 -0.673813 0.675613
vn 0.693386 -0.613587 0.377792
vn 0.877984 0.000000 -0.478691
vn 0.693386 -0.613587 0.377792
vn 0.693281 -0.613584 -0.377990
vn 0.404923 0.000000 -0.914351
vn 0.693281 -0.613584 -0.377990
vn 0.299206 -0.673813 -0.675613
vn 0.184506 0.000000 -0.982831
vn 0.299206 -0.673813 -0.675613
vn 0.133501 -0.690503 -0.710903
vn 0.055099 0.000000 -0.998481
vn 0.133501 -0.690503 -0.710903
vn 0.039600 -0.694908 -0.718008
vn -0.054999 0.000000 -0.998486
vn 0.039600 -0.694908 -0.718008
vn -0.039600 -0.694908 -0.718008
vn -0.184506 0.000000 -0.982831
vn -0.054999 0.000000 -0.998486
vn -0.039600 -0.694908 -0.718008
vn -0.405006 0.000000 -0.914314
vn -0.184506 0.000000 -0.982831
vn -0.133501 -0.690503 -0.710903
vn -0.878133 0.000000 -0.478418
vn -0.405006 0.000000 -0.914314
vn -0.299206 -0.673813 -0.675613
vn -0.877984 0.000000 0.478691
vn -0.878133 0.000000 -0.478418
vn -0.693386 -0.613587 -0.377792
vn -0.404923 0.000000 0.914351
vn -0.877984 0.000000 0.478691
vn -0.693281 -0.613584 0.377990
vn -0.184506 0.000000 0.982831
vn -0.404923 0.000000 0.914351
vn -0.299206 -0.673813 0.675613
vn -0.055099 0.000000 0.998481
vn -0.184506 0.000000 0.982831
vn -0.133501 -0.690503 0.710903
vn 0.054999 0.000000 0.998486
vn -0.055099 0.000000 0.998481
vn -0.039600 -0.694908 0.718008
vn 0.184506 0.000000 0.982831
vn 0.054999 0.000000 0.998486
vn 0.039600 -0.694908 0.718008
vn 0.405006 0.000000 0.914314
vn 0.184506 0.000000 0.982831
vn 0.133501 -0.690503 0.710903
vn 0.878133 0.000000 0.478418
vn 0.405006 0.000000 0.914314
vn 0.299206 -0.673813 0.675613
vn 0.877984 0.000000 -0.478691
vn 0.878133 0.000000 0.478418
vn 0.693386 -0.613587 0.377792
vn 0.404923 0.000000 -0.914351
vn 0.877984 0.000000 -0.478691
vn 0.693281 -0.613584 -0.377990
vn 0.184506 0.000000 -0.982831
vn 0.404923 0.000000 -0.914351
vn 0.299206 -0.673813 -0.675613
vn 0.055099 0.000000 -0.998481
vn 0.184506 0.000000 -0.982831
vn 0.133501 -0.690503 -0.710903
vn -0.054999 0.000000 -0.998486
vn 0.055099 0.000000 -0.998481
vn 0.039600 -0.694908 -0.718008
s off
g GH_Note_Open:Mesh
usemtl GH_Note_Open:Material_003
f 21//1 23//2 31//3
f 31//4 1//5 21//6
f 3//7 5//8 17//9
f 7//10 9//11 13//12
f 11//13 13//14 9//15
f 15//16 17//17 5//18
f 19//19 21//20 1//21
f 23//22 25//23 29//24
f 27//25 29//26 25//27
f 1//28 3//29 19//30
f 7//31 13//32 15//33
f 17//34 19//35 3//36
f 23//37 29//38 31//39
f 5//40 7//41 15//42
usemtl GH_Note_Open:Material_005
f 34//43 50//44 49//45
f 33//46 51//47 50//48
f 35//49 52//50 51//51
f 36//52 53//53 52//54
f 37//55 54//56 53//57
f 38//58 55//59 54//60
f 39//61 56//62 55//63
f 40//64 57//65 56//66
f 41//67 58//68 57//69
f 42//70 59//71 58//72
f 43//73 60//74 59//75
f 44//76 61//77 60//78
f 45//79 62//80 61//81
f 46//82 63//83 62//84
f 47//85 64//86 63//87
f 48//88 49//89 64//90
f 2//91 33//92 34//93
f 6//94 33//95 4//96
f 8//97 35//98 6//99
f 10//100 36//101 8//102
f 12//103 37//104 10//105
f 12//106 39//107 38//108
f 14//109 40//110 39//111
f 16//112 41//113 40//114
f 18//115 42//116 41//117
f 22//118 42//119 20//120
f 24//121 43//122 22//123
f 26//124 44//125 24//126
f 28//127 45//128 26//129
f 28//130 47//131 46//132
f 30//133 48//134 47//135
f 32//136 34//137 48//138
f 34//139 33//140 50//141
f 33//142 35//143 51//144
f 35//145 36//146 52//147
f 36//148 37//149 53//150
f 37//151 38//152 54//153
f 38//154 39//155 55//156
f 39//157 40//158 56//159
f 40//160 41//161 57//162
f 41//163 42//164 58//165
f 42//166 43//167 59//168
f 43//169 44//170 60//171
f 44//172 45//173 61//174
f 45//175 46//176 62//177
f 46//178 47//179 63//180
f 47//181 48//182 64//183
f 48//184 34//185 49//186
f 2//187 4//188 33//189
f 6//190 35//191 33//192
f 8//193 36//194 35//195
f 10//196 37//197 36//198
f 12//199 38//200 37//201
f 12//202 14//203 39//204
f 14//205 16//206 40//207
f 16//208 18//209 41//210
f 18//211 20//212 42//213
f 22//214 43//215 42//216
f 24//217 44//218 43//219
f 26//220 45//221 44//222
f 28//223 46//224 45//225
f 28//226 30//227 47//228
f 30//229 32//230 48//231
f 32//232 2//233 34//234
usemtl GH_Note_Open:Material
f 16//235 8//236 6//237
f 6//238 4//239 18//240
f 2//241 32//242 22//243
f 30//244 28//245 26//246
f 26//247 24//248 30//249
f 22//250 20//251 2//252
f 18//253 16//254 6//255
f 14//256 12//257 10//258
f 10//259 8//260 14//261
f 4//262 20//263 18//264
f 30//265 24//266 32//267
f 20//268 4//269 2//270
f 14//271 8//272 16//273
f 32//274 24//275 22//276
usemtl GH_Note_Open:Material_001
f 64//277 1//278 31//279
f 63//280 31//281 29//282
f 62//283 29//284 27//285
f 61//286 27//287 25//288
f 60//289 25//290 23//291
f 59//292 23//293 21//294
f 58//295 21//296 19//297
f 57//298 19//299 17//300
f 56//301 17//302 15//303
f 55//304 15//305 13//306
f 54//307 13//308 11//309
f 53//310 11//311 9//312
f 52//313 9//314 7//315
f 51//316 7//317 5//318
f 50//319 5//320 3//321
f 49//322 3//323 1//324
f 64//325 49//326 1//327
f 63//328 64//329 31//330
f 62//331 63//332 29//333
f 61//334 62//335 27//336
f 60//337 61//338 25//339
f 59//340 60//341 23//342
f 58//343 59//344 21//345
f 57//346 58//347 19//348
f 56//349 57//350 17//351
f 55//352 56//353 15//354
f 54//355 55//356 13//357
f 53//358 54//359 11//360
f 52//361 53//362 9//363
f 51//364 52//365 7//366
f 50//367 51//368 5//369
f 49//370 50//371 3//372
